HIERARCHY
ROOT Hips
{
	OFFSET 0.00000 0.00000 0.00000
	CHANNELS 6 Xposition Yposition Zposition Zrotation Yrotation Xrotation 
	JOINT RightUpLegDummy
	{
		OFFSET 0 0 0
		CHANNELS 3 Zrotation Yrotation Xrotation
		JOINT RightUpLeg
		{
			OFFSET -3.52197 -3.41223 0.04002
			CHANNELS 3 Zrotation Yrotation Xrotation
			JOINT RightLeg
			{
				OFFSET 0.00006 -17.42390 1.60435
				CHANNELS 3 Zrotation Yrotation Xrotation
				JOINT RightFoot
				{
					OFFSET 0.06154 -16.50078 -1.63900
					CHANNELS 3 Zrotation Yrotation Xrotation
					JOINT RightToes
					{
						OFFSET 0.00298 -1.73825 3.34613
						CHANNELS 3 Zrotation Yrotation Xrotation
						End Site
						{
							OFFSET 0.00480 -0.05416 3.85043
						}
					}
				}
			}
		}
	}
	JOINT SpineDummy
	{
		OFFSET 0 0 0
		CHANNELS 3 Zrotation Yrotation Xrotation
		JOINT Spine
		{
			OFFSET 0.00000 4.68130 0.00000
			CHANNELS 3 Zrotation Yrotation Xrotation
			JOINT Spine1
			{
				OFFSET -0.00000 10.10138 0.05002
				CHANNELS 3 Zrotation Yrotation Xrotation
				JOINT HEadDummy
				{
					OFFSET 0 0 0
					CHANNELS 3 Zrotation Yrotation Xrotation
					JOINT Head
					{
						OFFSET -0.00000 3.43865 0.00438
						CHANNELS 3 Zrotation Yrotation Xrotation
						End Site
						{
							OFFSET -0.11417 5.02924 0.98962
						}
					}
				}
				JOINT LeftShoulder1Dummy
				{
					OFFSET 0 0 0
					CHANNELS 3 Zrotation Yrotation Xrotation
					JOINT LeftShoulder1
					{
						OFFSET 3.53937 -0.14262 -0.08662
						CHANNELS 3 Zrotation Yrotation Xrotation
						JOINT LeftArm
						{
							OFFSET 4.04833 -0.00133 0.12681
							CHANNELS 3 Zrotation Yrotation Xrotation
							JOINT LeftForeArm
							{
								OFFSET 10.33880 -0.01036 -0.55515
								CHANNELS 3 Zrotation Yrotation Xrotation
								JOINT LeftHand
								{
									OFFSET 8.69677 0.07543 0.40060
									CHANNELS 3 Zrotation Yrotation Xrotation
									End Site
									{
										OFFSET 5.28377 -0.21905 0.59205
									}
								}
							}
						}
					}
				}
				JOINT RightShoulderDummy
				{
					OFFSET 0 0 0
					CHANNELS 3 Zrotation Yrotation Xrotation
					JOINT RightShoulder
					{
						OFFSET -3.53937 -0.14262 -0.08660
						CHANNELS 3 Zrotation Yrotation Xrotation
						JOINT RightArm
						{
							OFFSET -4.04833 -0.00133 0.12683
							CHANNELS 3 Zrotation Yrotation Xrotation
							JOINT RightForeArm
							{
								OFFSET -10.37987 -0.01039 -0.55511
								CHANNELS 3 Zrotation Yrotation Xrotation
								JOINT RightHand
								{
									OFFSET -8.67398 0.07538 0.40058
									CHANNELS 3 Zrotation Yrotation Xrotation
									End Site
									{
										OFFSET -5.24810 -0.21916 0.59204
									}
								}
							}
						}
					}
				}
			}
		}
	}
	JOINT LeftUpLegDummy
	{
		OFFSET 0 0 0
		CHANNELS 3 Zrotation Yrotation Xrotation
		JOINT LeftUpLeg
		{
			OFFSET 3.52197 -3.41223 0.04002
			CHANNELS 3 Zrotation Yrotation Xrotation
			JOINT LeftLeg
			{
				OFFSET -0.00012 -17.42399 1.60337
				CHANNELS 3 Zrotation Yrotation Xrotation
				JOINT LeftFoot
				{
					OFFSET -0.09972 -16.50070 -1.63802
					CHANNELS 3 Zrotation Yrotation Xrotation
					JOINT LeftToes
					{
						OFFSET -0.01575 -1.73823 3.34611
						CHANNELS 3 Zrotation Yrotation Xrotation
						End Site
						{
							OFFSET 0.03150 -0.01868 3.85031
						}
					}
				}
			}
		}
	}
}
MOTION
Frames: 7
Frame Time: 0.033333
-61.0032 38.6545 -4.5926 62.8049 80.9066 73.5061 0.0000 0.0000 0.0000 -4.7669 5.1261 -18.9150 -55.7350 -61.9751 47.6195 -161.2212 -51.1480 -20.1824 0.0000 0.0000 -0.0000 0.0000 0.0000 0.0000 -31.0478 -8.6460 2.9551 54.1844 -8.0170 -24.0693 0.0000 0.0000 0.0000 -19.8189 26.0145 13.3443 0.0000 0.0000 0.0000 -73.4321 1.6656 1.6322 -28.3125 13.4952 2.7180 -9.9997 -16.0082 1.9178 13.3405 -2.2348 -0.8577 0.0000 0.0000 0.0000 68.7480 17.7342 17.2299 -55.3434 -35.4901 76.3331 -10.3763 75.5527 71.1500 -88.3433 4.1588 -9.0366 0.0000 0.0000 0.0000 -12.0009 -4.6176 -9.5725 -176.5996 -10.5864 169.9470 0.1524 19.1508 173.6450 -0.0000 0.0000 0.0000
-60.9945 38.6545 -4.5926 62.6923 80.9177 73.4197 0.0000 0.0000 0.0000 -4.7033 5.0794 -18.8989 -54.7024 -61.6519 46.6158 -161.5019 -50.6567 -19.9502 0.0000 0.0000 -0.0000 0.0000 0.0000 0.0000 -31.0091 -8.6666 2.9063 54.1663 -8.0378 -24.0450 0.0000 0.0000 0.0000 -19.8675 25.9655 13.3102 0.0000 0.0000 0.0000 -73.4124 1.6666 1.6287 -28.3438 13.4822 2.6526 -10.0651 -15.9457 1.9879 13.5756 -2.3488 -0.8858 0.0000 0.0000 0.0000 68.7480 17.7199 17.2184 -55.2867 -35.4213 76.3590 -10.2658 75.3994 71.2301 -88.3130 4.2093 -9.0796 0.0000 0.0000 0.0000 -11.9872 -4.6035 -9.5949 -176.5761 -10.8935 169.9332 0.1413 18.8391 173.6620 -0.0000 0.0000 0.0000
-60.9794 38.6545 -4.5929 62.7186 80.9411 73.4900 0.0000 0.0000 0.0000 -4.6861 5.1202 -18.9006 -54.3814 -61.5598 46.3067 -161.6426 -50.4422 -19.8412 0.0000 0.0000 -0.0000 0.0000 0.0000 0.0000 -30.9999 -8.6848 2.8848 54.1832 -8.0395 -24.0627 0.0000 0.0000 0.0000 -19.9257 25.8606 13.3006 0.0000 0.0000 0.0000 -73.3704 1.6755 1.6195 -28.4084 13.4732 2.7294 -10.1092 -15.9206 1.8685 13.8867 -2.4194 -0.9146 0.0000 0.0000 0.0000 68.7480 17.7825 17.2687 -55.2562 -35.5011 76.4315 -10.1720 75.2675 71.2872 -88.1649 4.3526 -9.1912 0.0000 0.0000 0.0000 -11.9803 -4.5890 -9.6360 -176.5095 -11.5164 169.8902 0.1147 18.1836 173.6790 -0.0000 0.0000 0.0000
-60.9621 38.6545 -4.5947 62.8820 80.9487 73.6754 0.0000 0.0000 0.0000 -4.7489 5.2217 -18.8996 -55.5499 -61.9660 47.4092 -161.4067 -50.9706 -20.0572 0.0000 0.0000 -0.0000 0.0000 0.0000 0.0000 -31.0226 -8.7059 2.8789 54.1594 -8.0699 -24.0346 0.0000 0.0000 0.0000 -19.8883 25.7927 13.2911 0.0000 0.0000 0.0000 -73.2776 1.7015 1.5939 -28.4590 13.4269 2.8100 -10.1202 -15.9196 1.8123 13.9659 -2.4360 -0.9219 0.0000 0.0000 0.0000 68.7480 18.1146 17.5355 -55.1614 -36.0090 76.4595 -10.1944 75.2986 71.2825 -87.9240 4.5321 -9.3214 0.0000 0.0000 0.0000 -11.9950 -4.5828 -9.6282 -176.4917 -11.7373 169.8882 0.1031 17.9262 173.6790 -0.0000 0.0000 0.0000
-60.9439 38.6545 -4.5980 62.9875 80.9363 73.7918 0.0000 0.0000 0.0000 -4.7953 5.2108 -18.9014 -56.7179 -62.3500 48.4910 -161.0900 -51.5962 -20.3356 0.0000 0.0000 -0.0000 0.0000 0.0000 0.0000 -31.0464 -8.7352 2.8277 54.1085 -8.1461 -23.9157 0.0000 0.0000 0.0000 -19.8269 25.7742 13.2326 0.0000 0.0000 0.0000 -73.1996 1.7279 1.5684 -28.4555 13.3498 3.0262 -10.0834 -15.9692 1.7227 13.9075 -2.4926 -0.9243 0.0000 0.0000 0.0000 68.7478 18.4871 17.8351 -55.0181 -36.5299 76.3967 -10.2629 75.3885 71.3060 -87.7683 4.6143 -9.3732 0.0000 0.0000 0.0000 -12.0058 -4.5738 -9.5791 -176.5860 -11.1511 169.9569 0.1284 18.4840 173.6800 -0.0000 0.0000 0.0000
-60.9259 38.6545 -4.6014 62.9895 80.9353 73.8371 0.0000 0.0000 0.0000 -4.7668 5.0705 -18.9155 -56.6757 -62.3420 48.4277 -160.9933 -51.6955 -20.4030 0.0000 0.0000 -0.0000 0.0000 0.0000 0.0000 -31.0793 -8.7489 2.7492 54.1654 -8.1856 -23.8321 0.0000 0.0000 0.0000 -19.8775 25.7392 13.1588 0.0000 0.0000 0.0000 -73.2568 1.7137 1.5826 -28.3967 13.3328 3.7916 -9.9261 -16.1889 0.9963 13.9927 -2.4928 -0.9301 0.0000 0.0000 0.0000 68.7494 18.4700 17.8220 -55.0250 -36.4385 76.3128 -10.2881 75.4069 71.4799 -87.8849 4.4759 -9.2623 0.0000 0.0000 0.0000 -11.9837 -4.5510 -9.5809 -176.7299 -10.1923 170.0034 0.1754 19.4056 173.7120 -0.0000 0.0000 0.0000
-60.9092 38.6545 -4.6035 62.9699 80.9631 73.8874 0.0000 0.0000 0.0000 -4.7122 4.9753 -18.9515 -56.1406 -62.1848 47.9156 -161.0434 -51.4867 -20.3366 0.0000 0.0000 -0.0000 0.0000 0.0000 0.0000 -31.1270 -8.7284 2.7192 54.3379 -8.1320 -23.8877 0.0000 0.0000 0.0000 -19.9902 25.6811 13.1291 0.0000 0.0000 0.0000 -73.4434 1.6499 1.6443 -28.3114 13.4245 4.9480 -9.6604 -16.5492 -0.3585 14.2110 -2.2794 -0.9205 0.0000 0.0000 0.0000 68.7594 18.0870 17.5154 -55.2310 -35.8568 76.2672 -10.3035 75.3989 71.8064 -88.2551 4.1399 -9.0049 0.0000 0.0000 0.0000 -11.9384 -4.5199 -9.6583 -176.8245 -9.4896 169.9542 0.2156 20.0657 173.7700 -0.0000 0.0000 0.0000
